<svg width="75" height="31" viewBox="0 0 75 31" fill="none" xmlns="http://www.w3.org/2000/svg">
<path d="M69.5896 9.70898V7.33082H70.6811V6.92823H68.0498V7.33082H69.1455V9.70898H69.5896ZM71.3916 9.70898V8.00318L71.375 7.60059H71.4082L71.5784 8.00318L72.3462 9.54297H72.8857L73.6536 8.00318L73.8237 7.60059H73.8569L73.8403 8.00318V9.70898H74.2886V6.92823H73.6785L72.8857 8.53858L72.6409 9.11548H72.6077L72.3545 8.53858L71.5535 6.92823H70.9434V9.70898H71.3916Z" fill="#262626"/>
<path d="M6.58629 23.8389C7.62223 23.8389 8.53863 23.6497 9.3355 23.2712C10.1324 22.8727 10.74 22.2751 11.1583 21.4782V23.4803H15.3419V7.16438H10.8595V16.697C10.8595 17.6333 10.5806 18.3903 10.0228 18.9681C9.465 19.5259 8.74781 19.8048 7.87125 19.8048C6.99469 19.8048 6.27751 19.5259 5.7197 18.9681C5.16188 18.3903 4.88298 17.6333 4.88298 16.697V7.16438H0.400574V17.0556C0.400574 19.0876 0.928501 20.7311 1.98436 21.9862C3.06013 23.2214 4.59411 23.8389 6.58629 23.8389Z" fill="black"/>
<path d="M18.6181 5.70013H23.1005V1.21772H18.6181V5.70013ZM18.6181 23.4803H23.1005V7.16438H18.6181V23.4803Z" fill="black"/>
<path d="M28.3528 23.4803H32.8352V11.0491H36.3315V7.16438H32.8352V6.92532C32.8352 5.47103 33.6819 4.74388 35.3752 4.74388C35.6542 4.74388 35.9829 4.77377 36.3614 4.83353V1.00854C35.9032 0.908935 35.3752 0.859131 34.7776 0.859131C32.7456 0.859131 31.1618 1.38706 30.0262 2.44291C28.9106 3.49877 28.3528 4.99291 28.3528 6.92532V7.16438H25.6036V11.0491H28.3528V23.4803Z" fill="black"/>
<path d="M38.6371 23.4803H43.1195V14.6948C43.1195 13.4796 43.4582 12.5433 44.1355 11.8858C44.8129 11.2085 45.6994 10.8698 46.7951 10.8698H48.1996V6.98509H47.2433C46.2473 6.98509 45.3607 7.17434 44.5838 7.55286C43.8268 7.91145 43.2391 8.59875 42.8207 9.61476V7.16438H38.6371V23.4803Z" fill="black"/>
<path d="M52.7042 30.1143C55.6924 30.1143 57.854 28.411 59.1887 25.0044L66.1813 7.16438H61.3702L57.5153 17.6532L53.6604 7.16438H48.8493L55.2741 23.4803L54.9753 24.1676C54.7362 24.7055 54.4274 25.1837 54.0489 25.602C53.6704 26.0204 53.0428 26.2295 52.1663 26.2295C51.4491 26.2295 50.7718 26.1299 50.1343 25.9307V29.6063C50.4729 29.7856 50.8614 29.9151 51.2997 29.9948C51.7579 30.0745 52.2261 30.1143 52.7042 30.1143Z" fill="black"/>
</svg>
